<svg xmlns="http://www.w3.org/2000/svg" viewBox="0 0 960 720" role="img" aria-labelledby="title desc">
  <title id="title">Event identity visual</title>
  <desc id="desc">Layered event-flyer system with dark panels and warm accent blocks.</desc>
  <defs>
    <linearGradient id="bg" x1="0" x2="1" y1="0" y2="1">
      <stop offset="0" stop-color="#05070d"/>
      <stop offset="1" stop-color="#121827"/>
    </linearGradient>
    <linearGradient id="panel" x1="0" x2="1" y1="0" y2="1">
      <stop offset="0" stop-color="#ffffff" stop-opacity="0.12"/>
      <stop offset="1" stop-color="#ffffff" stop-opacity="0.03"/>
    </linearGradient>
  </defs>
  <rect width="960" height="720" fill="url(#bg)"/>
  <rect x="150" y="86" width="310" height="476" rx="22" fill="url(#panel)" stroke="#ffffff" stroke-opacity="0.14"/>
  <rect x="256" y="142" width="340" height="492" rx="22" fill="#0d1421" stroke="#43d9ff" stroke-opacity="0.2"/>
  <rect x="478" y="108" width="298" height="420" rx="22" fill="url(#panel)" stroke="#ffffff" stroke-opacity="0.12"/>
  <rect x="306" y="190" width="238" height="156" rx="18" fill="#43d9ff" opacity="0.16"/>
  <rect x="330" y="220" width="124" height="20" rx="10" fill="#43d9ff" opacity="0.74"/>
  <rect x="330" y="272" width="180" height="12" rx="6" fill="#ffffff" opacity="0.28"/>
  <rect x="330" y="302" width="140" height="12" rx="6" fill="#ffffff" opacity="0.16"/>
  <rect x="306" y="400" width="238" height="92" rx="18" fill="#ffb54a" opacity="0.18"/>
  <rect x="514" y="170" width="180" height="20" rx="10" fill="#4cf0b5" opacity="0.64"/>
  <rect x="514" y="224" width="212" height="12" rx="6" fill="#ffffff" opacity="0.18"/>
  <rect x="514" y="254" width="154" height="12" rx="6" fill="#ffffff" opacity="0.13"/>
  <path d="M104 602h752" stroke="#ffffff" stroke-opacity="0.12"/>
  <circle cx="196" cy="612" r="54" fill="#f36cff" opacity="0.13"/>
  <circle cx="800" cy="108" r="86" fill="#43d9ff" opacity="0.12"/>
</svg>
