<svg xmlns="http://www.w3.org/2000/svg" viewBox="0 0 960 720" role="img" aria-labelledby="title desc">
  <title id="title">Short-form content board visual</title>
  <desc id="desc">Editorial content planning board with vertical video frames and analytics marks.</desc>
  <defs>
    <linearGradient id="bg" x1="0" x2="1" y1="0" y2="1">
      <stop offset="0" stop-color="#080b12"/>
      <stop offset="1" stop-color="#111827"/>
    </linearGradient>
    <linearGradient id="line" x1="0" x2="1">
      <stop offset="0" stop-color="#43d9ff"/>
      <stop offset="0.5" stop-color="#4cf0b5"/>
      <stop offset="1" stop-color="#f36cff"/>
    </linearGradient>
  </defs>
  <rect width="960" height="720" fill="url(#bg)"/>
  <rect x="108" y="86" width="744" height="548" rx="26" fill="#ffffff" opacity="0.045" stroke="#ffffff" stroke-opacity="0.12"/>
  <rect x="148" y="132" width="154" height="360" rx="22" fill="#0b111c" stroke="#43d9ff" stroke-opacity="0.28"/>
  <rect x="332" y="132" width="154" height="360" rx="22" fill="#0b111c" stroke="#ffffff" stroke-opacity="0.16"/>
  <rect x="516" y="132" width="154" height="360" rx="22" fill="#0b111c" stroke="#4cf0b5" stroke-opacity="0.23"/>
  <rect x="700" y="132" width="100" height="360" rx="22" fill="#0b111c" stroke="#ffffff" stroke-opacity="0.12"/>
  <path d="M164 418c54-58 94-64 120-18M348 394c48-64 90-76 124-36M532 430c50-82 94-98 128-48" fill="none" stroke="url(#line)" stroke-width="8" stroke-linecap="round"/>
  <rect x="156" y="524" width="176" height="14" rx="7" fill="#43d9ff" opacity="0.58"/>
  <rect x="156" y="558" width="296" height="10" rx="5" fill="#ffffff" opacity="0.18"/>
  <rect x="156" y="586" width="236" height="10" rx="5" fill="#ffffff" opacity="0.12"/>
  <circle cx="744" cy="538" r="36" fill="#ffb54a" opacity="0.18"/>
</svg>
